<svg id="visual" viewBox="0 0 4000 2000" width="4000" height="2000" xmlns="http://www.w3.org/2000/svg" xmlns:xlink="http://www.w3.org/1999/xlink" version="1.1"><g stroke-width="1" stroke-linejoin="bevel"><path d="M2056 1050L2036 1141L2168 1042Z" fill="#3d2691" stroke="#3d2691"></path><path d="M2036 1141L2216 1153L2168 1042Z" fill="#472ea5" stroke="#472ea5"></path><path d="M2036 1141L2194 1342L2216 1153Z" fill="#6746e3" stroke="#6746e3"></path><path d="M1777 1028L1851 1213L2036 1141Z" fill="#5c3ece" stroke="#5c3ece"></path><path d="M2036 1141L2028 1441L2194 1342Z" fill="#4c32af" stroke="#4c32af"></path><path d="M2356 818L2208 806L2168 1042Z" fill="#382388" stroke="#382388"></path><path d="M2168 1042L2208 806L2056 1050Z" fill="#422a9b" stroke="#422a9b"></path><path d="M2056 1050L1777 1028L2036 1141Z" fill="#4c32af" stroke="#4c32af"></path><path d="M2194 1342L2418 1225L2216 1153Z" fill="#573ac3" stroke="#573ac3"></path><path d="M2216 1153L2432 1044L2168 1042Z" fill="#6746e3" stroke="#6746e3"></path><path d="M2418 1225L2432 1044L2216 1153Z" fill="#472ea5" stroke="#472ea5"></path><path d="M1851 1213L2028 1441L2036 1141Z" fill="#5c3ece" stroke="#5c3ece"></path><path d="M2194 1342L2377 1399L2418 1225Z" fill="#5136b9" stroke="#5136b9"></path><path d="M1830 833L1777 1028L2056 1050Z" fill="#6746e3" stroke="#6746e3"></path><path d="M2208 806L1991 780L2056 1050Z" fill="#331f7e" stroke="#331f7e"></path><path d="M2432 1044L2356 818L2168 1042Z" fill="#5136b9" stroke="#5136b9"></path><path d="M2208 806L1994 656L1991 780Z" fill="#331f7e" stroke="#331f7e"></path><path d="M2248 1634L2377 1399L2194 1342Z" fill="#4c32af" stroke="#4c32af"></path><path d="M1991 780L1830 833L2056 1050Z" fill="#422a9b" stroke="#422a9b"></path><path d="M1626 1253L1802 1416L1851 1213Z" fill="#6242d8" stroke="#6242d8"></path><path d="M1851 1213L1802 1416L2028 1441Z" fill="#331f7e" stroke="#331f7e"></path><path d="M2620 1193L2541 974L2432 1044Z" fill="#5136b9" stroke="#5136b9"></path><path d="M2432 1044L2541 974L2356 818Z" fill="#4c32af" stroke="#4c32af"></path><path d="M2620 1193L2432 1044L2418 1225Z" fill="#3d2691" stroke="#3d2691"></path><path d="M1836 1592L2059 1562L2028 1441Z" fill="#6746e3" stroke="#6746e3"></path><path d="M2028 1441L2059 1562L2194 1342Z" fill="#6242d8" stroke="#6242d8"></path><path d="M2156 563L1994 656L2208 806Z" fill="#5136b9" stroke="#5136b9"></path><path d="M1991 780L1994 656L1830 833Z" fill="#6746e3" stroke="#6746e3"></path><path d="M1830 833L1645 982L1777 1028Z" fill="#5c3ece" stroke="#5c3ece"></path><path d="M1777 1028L1626 1253L1851 1213Z" fill="#6746e3" stroke="#6746e3"></path><path d="M1648 770L1645 982L1830 833Z" fill="#422a9b" stroke="#422a9b"></path><path d="M2600 1356L2620 1193L2418 1225Z" fill="#5136b9" stroke="#5136b9"></path><path d="M1645 982L1626 1253L1777 1028Z" fill="#6242d8" stroke="#6242d8"></path><path d="M2598 814L2354 637L2356 818Z" fill="#573ac3" stroke="#573ac3"></path><path d="M2356 818L2354 637L2208 806Z" fill="#382388" stroke="#382388"></path><path d="M2059 1562L2248 1634L2194 1342Z" fill="#6746e3" stroke="#6746e3"></path><path d="M2377 1399L2600 1356L2418 1225Z" fill="#6746e3" stroke="#6746e3"></path><path d="M2578 1562L2600 1356L2377 1399Z" fill="#5136b9" stroke="#5136b9"></path><path d="M2248 1634L2397 1575L2377 1399Z" fill="#331f7e" stroke="#331f7e"></path><path d="M2354 637L2156 563L2208 806Z" fill="#6746e3" stroke="#6746e3"></path><path d="M1595 1630L1836 1592L1802 1416Z" fill="#5c3ece" stroke="#5c3ece"></path><path d="M1802 1416L1836 1592L2028 1441Z" fill="#4c32af" stroke="#4c32af"></path><path d="M2253 1848L2355 1759L2248 1634Z" fill="#472ea5" stroke="#472ea5"></path><path d="M2740 982L2598 814L2541 974Z" fill="#422a9b" stroke="#422a9b"></path><path d="M2541 974L2598 814L2356 818Z" fill="#382388" stroke="#382388"></path><path d="M1764 630L1830 833L1994 656Z" fill="#573ac3" stroke="#573ac3"></path><path d="M1764 630L1648 770L1830 833Z" fill="#573ac3" stroke="#573ac3"></path><path d="M1405 1345L1543 1359L1357 1209Z" fill="#6746e3" stroke="#6746e3"></path><path d="M1794 380L1764 630L1994 656Z" fill="#3d2691" stroke="#3d2691"></path><path d="M1543 1359L1626 1253L1357 1209Z" fill="#5c3ece" stroke="#5c3ece"></path><path d="M1626 1253L1543 1359L1802 1416Z" fill="#5136b9" stroke="#5136b9"></path><path d="M2831 1227L2740 982L2620 1193Z" fill="#6746e3" stroke="#6746e3"></path><path d="M2620 1193L2740 982L2541 974Z" fill="#331f7e" stroke="#331f7e"></path><path d="M2397 1575L2578 1562L2377 1399Z" fill="#3d2691" stroke="#3d2691"></path><path d="M2600 1356L2831 1227L2620 1193Z" fill="#6746e3" stroke="#6746e3"></path><path d="M2563 1775L2578 1562L2397 1575Z" fill="#382388" stroke="#382388"></path><path d="M2840 764L2600 629L2598 814Z" fill="#382388" stroke="#382388"></path><path d="M2598 814L2600 629L2354 637Z" fill="#382388" stroke="#382388"></path><path d="M2254 387L2023 407L2156 563Z" fill="#5136b9" stroke="#5136b9"></path><path d="M1988 1829L2248 1634L2059 1562Z" fill="#382388" stroke="#382388"></path><path d="M2248 1634L2355 1759L2397 1575Z" fill="#382388" stroke="#382388"></path><path d="M2346 418L2156 563L2354 637Z" fill="#331f7e" stroke="#331f7e"></path><path d="M2156 563L2023 407L1994 656Z" fill="#422a9b" stroke="#422a9b"></path><path d="M1595 1630L1841 1780L1836 1592Z" fill="#422a9b" stroke="#422a9b"></path><path d="M1836 1592L1988 1829L2059 1562Z" fill="#3d2691" stroke="#3d2691"></path><path d="M2855 1446L2831 1227L2600 1356Z" fill="#472ea5" stroke="#472ea5"></path><path d="M1841 1780L1988 1829L1836 1592Z" fill="#5136b9" stroke="#5136b9"></path><path d="M2600 629L2346 418L2354 637Z" fill="#472ea5" stroke="#472ea5"></path><path d="M1543 1359L1595 1630L1802 1416Z" fill="#573ac3" stroke="#573ac3"></path><path d="M2346 418L2254 387L2156 563Z" fill="#573ac3" stroke="#573ac3"></path><path d="M1764 630L1568 616L1648 770Z" fill="#5136b9" stroke="#5136b9"></path><path d="M1441 760L1369 991L1645 982Z" fill="#472ea5" stroke="#472ea5"></path><path d="M1556 393L1568 616L1764 630Z" fill="#6746e3" stroke="#6746e3"></path><path d="M1357 1209L1626 1253L1645 982Z" fill="#4c32af" stroke="#4c32af"></path><path d="M1543 1359L1420 1612L1595 1630Z" fill="#573ac3" stroke="#573ac3"></path><path d="M1988 1829L2253 1848L2248 1634Z" fill="#472ea5" stroke="#472ea5"></path><path d="M1441 760L1645 982L1648 770Z" fill="#5c3ece" stroke="#5c3ece"></path><path d="M1568 616L1441 760L1648 770Z" fill="#472ea5" stroke="#472ea5"></path><path d="M1369 991L1357 1209L1645 982Z" fill="#382388" stroke="#382388"></path><path d="M2563 1775L2755 1586L2578 1562Z" fill="#3d2691" stroke="#3d2691"></path><path d="M2578 1562L2755 1586L2600 1356Z" fill="#331f7e" stroke="#331f7e"></path><path d="M2563 1775L2397 1575L2355 1759Z" fill="#6746e3" stroke="#6746e3"></path><path d="M1976 183L1794 380L2023 407Z" fill="#472ea5" stroke="#472ea5"></path><path d="M2023 407L1794 380L1994 656Z" fill="#331f7e" stroke="#331f7e"></path><path d="M2370 2000L2563 1775L2355 1759Z" fill="#422a9b" stroke="#422a9b"></path><path d="M2740 982L2840 764L2598 814Z" fill="#6746e3" stroke="#6746e3"></path><path d="M2600 629L2622 399L2346 418Z" fill="#3d2691" stroke="#3d2691"></path><path d="M2942 942L2840 764L2740 982Z" fill="#6242d8" stroke="#6242d8"></path><path d="M2755 1586L2855 1446L2600 1356Z" fill="#472ea5" stroke="#472ea5"></path><path d="M2831 1227L2942 942L2740 982Z" fill="#6746e3" stroke="#6746e3"></path><path d="M3010 1168L2942 942L2831 1227Z" fill="#422a9b" stroke="#422a9b"></path><path d="M1595 1630L1589 1777L1841 1780Z" fill="#382388" stroke="#382388"></path><path d="M2049 2000L2153 2000L1988 1829Z" fill="#6242d8" stroke="#6242d8"></path><path d="M1420 1612L1589 1777L1595 1630Z" fill="#5c3ece" stroke="#5c3ece"></path><path d="M3034 591L2825 638L2840 764Z" fill="#3d2691" stroke="#3d2691"></path><path d="M2840 764L2825 638L2600 629Z" fill="#6746e3" stroke="#6746e3"></path><path d="M1247 1454L1420 1612L1405 1345Z" fill="#3d2691" stroke="#3d2691"></path><path d="M1405 1345L1420 1612L1543 1359Z" fill="#5136b9" stroke="#5136b9"></path><path d="M2825 638L2622 399L2600 629Z" fill="#472ea5" stroke="#472ea5"></path><path d="M2434 249L2165 224L2254 387Z" fill="#382388" stroke="#382388"></path><path d="M1556 393L1418 587L1568 616Z" fill="#331f7e" stroke="#331f7e"></path><path d="M1568 616L1418 587L1441 760Z" fill="#331f7e" stroke="#331f7e"></path><path d="M1154 850L1149 1049L1369 991Z" fill="#422a9b" stroke="#422a9b"></path><path d="M2434 249L2254 387L2346 418Z" fill="#4c32af" stroke="#4c32af"></path><path d="M2254 387L2165 224L2023 407Z" fill="#6746e3" stroke="#6746e3"></path><path d="M1988 1829L2153 2000L2253 1848Z" fill="#573ac3" stroke="#573ac3"></path><path d="M2253 1848L2370 2000L2355 1759Z" fill="#331f7e" stroke="#331f7e"></path><path d="M2049 2000L1988 1829L1844 2000Z" fill="#3d2691" stroke="#3d2691"></path><path d="M1844 2000L1988 1829L1841 1780Z" fill="#3d2691" stroke="#3d2691"></path><path d="M2999 1369L3010 1168L2831 1227Z" fill="#331f7e" stroke="#331f7e"></path><path d="M1752 233L1556 393L1794 380Z" fill="#5c3ece" stroke="#5c3ece"></path><path d="M1794 380L1556 393L1764 630Z" fill="#5136b9" stroke="#5136b9"></path><path d="M2622 399L2434 249L2346 418Z" fill="#382388" stroke="#382388"></path><path d="M2855 1446L2999 1369L2831 1227Z" fill="#5136b9" stroke="#5136b9"></path><path d="M3013 1565L2999 1369L2855 1446Z" fill="#422a9b" stroke="#422a9b"></path><path d="M3013 1565L2855 1446L2755 1586Z" fill="#5c3ece" stroke="#5c3ece"></path><path d="M2153 2000L2370 2000L2253 1848Z" fill="#5136b9" stroke="#5136b9"></path><path d="M2563 1775L2797 1746L2755 1586Z" fill="#422a9b" stroke="#422a9b"></path><path d="M1630 2000L1844 2000L1841 1780Z" fill="#6242d8" stroke="#6242d8"></path><path d="M2801 2000L2797 1746L2563 1775Z" fill="#331f7e" stroke="#331f7e"></path><path d="M1180 1253L1247 1454L1405 1345Z" fill="#5c3ece" stroke="#5c3ece"></path><path d="M1420 1612L1376 1750L1589 1777Z" fill="#4c32af" stroke="#4c32af"></path><path d="M1180 1253L1405 1345L1357 1209Z" fill="#5136b9" stroke="#5136b9"></path><path d="M1180 1253L1357 1209L1149 1049Z" fill="#422a9b" stroke="#422a9b"></path><path d="M2191 0L1976 183L2165 224Z" fill="#331f7e" stroke="#331f7e"></path><path d="M2165 224L1976 183L2023 407Z" fill="#5c3ece" stroke="#5c3ece"></path><path d="M1149 1049L1357 1209L1369 991Z" fill="#573ac3" stroke="#573ac3"></path><path d="M1976 183L1752 233L1794 380Z" fill="#422a9b" stroke="#422a9b"></path><path d="M1154 850L1369 991L1441 760Z" fill="#331f7e" stroke="#331f7e"></path><path d="M3182 944L3047 809L2942 942Z" fill="#6746e3" stroke="#6746e3"></path><path d="M2942 942L3047 809L2840 764Z" fill="#3d2691" stroke="#3d2691"></path><path d="M2778 364L2623 254L2622 399Z" fill="#573ac3" stroke="#573ac3"></path><path d="M3182 944L2942 942L3010 1168Z" fill="#6242d8" stroke="#6242d8"></path><path d="M1198 1561L1376 1750L1420 1612Z" fill="#472ea5" stroke="#472ea5"></path><path d="M1589 1777L1630 2000L1841 1780Z" fill="#472ea5" stroke="#472ea5"></path><path d="M1550 208L1425 402L1556 393Z" fill="#5136b9" stroke="#5136b9"></path><path d="M1556 393L1425 402L1418 587Z" fill="#6242d8" stroke="#6242d8"></path><path d="M1238 629L1154 850L1441 760Z" fill="#382388" stroke="#382388"></path><path d="M2370 2000L2557 2000L2563 1775Z" fill="#573ac3" stroke="#573ac3"></path><path d="M2622 399L2623 254L2434 249Z" fill="#5c3ece" stroke="#5c3ece"></path><path d="M2434 249L2191 0L2165 224Z" fill="#4c32af" stroke="#4c32af"></path><path d="M2778 364L2622 399L2825 638Z" fill="#422a9b" stroke="#422a9b"></path><path d="M1238 629L1441 760L1418 587Z" fill="#573ac3" stroke="#573ac3"></path><path d="M2986 459L2778 364L2825 638Z" fill="#5c3ece" stroke="#5c3ece"></path><path d="M1190 426L1238 629L1418 587Z" fill="#382388" stroke="#382388"></path><path d="M3027 1840L3013 1565L2797 1746Z" fill="#6242d8" stroke="#6242d8"></path><path d="M2797 1746L3013 1565L2755 1586Z" fill="#331f7e" stroke="#331f7e"></path><path d="M3235 1157L3182 944L3010 1168Z" fill="#3d2691" stroke="#3d2691"></path><path d="M1389 2000L1630 2000L1589 1777Z" fill="#5c3ece" stroke="#5c3ece"></path><path d="M1247 1454L1198 1561L1420 1612Z" fill="#382388" stroke="#382388"></path><path d="M1024 1413L1198 1561L1247 1454Z" fill="#5c3ece" stroke="#5c3ece"></path><path d="M1024 1413L1247 1454L1180 1253Z" fill="#5136b9" stroke="#5136b9"></path><path d="M3047 809L3034 591L2840 764Z" fill="#6746e3" stroke="#6746e3"></path><path d="M1154 850L1056 1006L1149 1049Z" fill="#422a9b" stroke="#422a9b"></path><path d="M1149 1049L1027 1244L1180 1253Z" fill="#5136b9" stroke="#5136b9"></path><path d="M1036 806L1056 1006L1154 850Z" fill="#6242d8" stroke="#6242d8"></path><path d="M1752 233L1550 208L1556 393Z" fill="#5c3ece" stroke="#5c3ece"></path><path d="M1036 624L1036 806L1238 629Z" fill="#331f7e" stroke="#331f7e"></path><path d="M1741 0L1550 208L1752 233Z" fill="#422a9b" stroke="#422a9b"></path><path d="M3155 1416L3010 1168L2999 1369Z" fill="#6242d8" stroke="#6242d8"></path><path d="M3047 809L3256 613L3034 591Z" fill="#4c32af" stroke="#4c32af"></path><path d="M3013 1565L3155 1416L2999 1369Z" fill="#5c3ece" stroke="#5c3ece"></path><path d="M3153 410L2986 459L3034 591Z" fill="#4c32af" stroke="#4c32af"></path><path d="M3034 591L2986 459L2825 638Z" fill="#6242d8" stroke="#6242d8"></path><path d="M2778 364L2774 207L2623 254Z" fill="#5c3ece" stroke="#5c3ece"></path><path d="M1056 1006L1027 1244L1149 1049Z" fill="#6746e3" stroke="#6746e3"></path><path d="M990 1816L1250 1787L1198 1561Z" fill="#3d2691" stroke="#3d2691"></path><path d="M1198 1561L1250 1787L1376 1750Z" fill="#573ac3" stroke="#573ac3"></path><path d="M1376 1750L1389 2000L1589 1777Z" fill="#5136b9" stroke="#5136b9"></path><path d="M2432 0L2434 249L2630 0Z" fill="#4c32af" stroke="#4c32af"></path><path d="M2432 0L2191 0L2434 249Z" fill="#6242d8" stroke="#6242d8"></path><path d="M1976 183L1741 0L1752 233Z" fill="#331f7e" stroke="#331f7e"></path><path d="M3057 158L2774 207L2778 364Z" fill="#6746e3" stroke="#6746e3"></path><path d="M3155 1416L3235 1157L3010 1168Z" fill="#573ac3" stroke="#573ac3"></path><path d="M2557 2000L2801 2000L2563 1775Z" fill="#331f7e" stroke="#331f7e"></path><path d="M3013 1565L3259 1585L3155 1416Z" fill="#5136b9" stroke="#5136b9"></path><path d="M1238 629L1036 806L1154 850Z" fill="#331f7e" stroke="#331f7e"></path><path d="M1056 1006L849 1204L1027 1244Z" fill="#472ea5" stroke="#472ea5"></path><path d="M1190 426L1418 587L1425 402Z" fill="#573ac3" stroke="#573ac3"></path><path d="M2191 0L1951 0L1976 183Z" fill="#382388" stroke="#382388"></path><path d="M1027 1244L1024 1413L1180 1253Z" fill="#422a9b" stroke="#422a9b"></path><path d="M1250 1787L1389 2000L1376 1750Z" fill="#422a9b" stroke="#422a9b"></path><path d="M1204 203L1190 426L1425 402Z" fill="#331f7e" stroke="#331f7e"></path><path d="M2630 0L2434 249L2623 254Z" fill="#4c32af" stroke="#4c32af"></path><path d="M3398 1025L3245 829L3182 944Z" fill="#472ea5" stroke="#472ea5"></path><path d="M3182 944L3245 829L3047 809Z" fill="#422a9b" stroke="#422a9b"></path><path d="M2801 2000L3027 1840L2797 1746Z" fill="#422a9b" stroke="#422a9b"></path><path d="M3155 1416L3383 1181L3235 1157Z" fill="#3d2691" stroke="#3d2691"></path><path d="M1951 0L1741 0L1976 183Z" fill="#3d2691" stroke="#3d2691"></path><path d="M1550 208L1423 148L1425 402Z" fill="#422a9b" stroke="#422a9b"></path><path d="M1190 426L1036 624L1238 629Z" fill="#472ea5" stroke="#472ea5"></path><path d="M849 1204L1024 1413L1027 1244Z" fill="#472ea5" stroke="#472ea5"></path><path d="M790 1435L993 1565L1024 1413Z" fill="#3d2691" stroke="#3d2691"></path><path d="M1579 0L1423 148L1550 208Z" fill="#573ac3" stroke="#573ac3"></path><path d="M1024 1413L993 1565L1198 1561Z" fill="#5c3ece" stroke="#5c3ece"></path><path d="M1250 1787L1230 2000L1389 2000Z" fill="#5c3ece" stroke="#5c3ece"></path><path d="M849 1204L1056 1006L790 999Z" fill="#422a9b" stroke="#422a9b"></path><path d="M2771 0L2630 0L2774 207Z" fill="#4c32af" stroke="#4c32af"></path><path d="M2774 207L2630 0L2623 254Z" fill="#422a9b" stroke="#422a9b"></path><path d="M1741 0L1579 0L1550 208Z" fill="#3d2691" stroke="#3d2691"></path><path d="M3169 1775L3259 1585L3013 1565Z" fill="#331f7e" stroke="#331f7e"></path><path d="M3235 1157L3398 1025L3182 944Z" fill="#5136b9" stroke="#5136b9"></path><path d="M3245 829L3256 613L3047 809Z" fill="#5c3ece" stroke="#5c3ece"></path><path d="M2986 459L3057 158L2778 364Z" fill="#3d2691" stroke="#3d2691"></path><path d="M3393 817L3256 613L3245 829Z" fill="#382388" stroke="#382388"></path><path d="M3027 1840L3169 1775L3013 1565Z" fill="#422a9b" stroke="#422a9b"></path><path d="M3170 2000L3169 1775L3027 1840Z" fill="#422a9b" stroke="#422a9b"></path><path d="M3256 613L3153 410L3034 591Z" fill="#422a9b" stroke="#422a9b"></path><path d="M2801 2000L2999 2000L3027 1840Z" fill="#382388" stroke="#382388"></path><path d="M990 1816L1230 2000L1250 1787Z" fill="#6746e3" stroke="#6746e3"></path><path d="M3405 1435L3383 1181L3155 1416Z" fill="#6746e3" stroke="#6746e3"></path><path d="M790 999L1056 1006L1036 806Z" fill="#6242d8" stroke="#6242d8"></path><path d="M3383 1181L3398 1025L3235 1157Z" fill="#472ea5" stroke="#472ea5"></path><path d="M1190 426L1007 457L1036 624Z" fill="#422a9b" stroke="#422a9b"></path><path d="M1423 148L1204 203L1425 402Z" fill="#6746e3" stroke="#6746e3"></path><path d="M1216 0L1204 203L1423 148Z" fill="#573ac3" stroke="#573ac3"></path><path d="M1041 156L1007 457L1190 426Z" fill="#472ea5" stroke="#472ea5"></path><path d="M831 749L790 999L1036 806Z" fill="#5c3ece" stroke="#5c3ece"></path><path d="M2964 0L2771 0L2774 207Z" fill="#331f7e" stroke="#331f7e"></path><path d="M3398 1025L3393 817L3245 829Z" fill="#6242d8" stroke="#6242d8"></path><path d="M3256 613L3383 370L3153 410Z" fill="#5136b9" stroke="#5136b9"></path><path d="M3259 1585L3405 1435L3155 1416Z" fill="#6746e3" stroke="#6746e3"></path><path d="M3383 1181L3586 1014L3398 1025Z" fill="#331f7e" stroke="#331f7e"></path><path d="M3431 1648L3405 1435L3259 1585Z" fill="#472ea5" stroke="#472ea5"></path><path d="M835 1805L990 1816L993 1565Z" fill="#472ea5" stroke="#472ea5"></path><path d="M993 1565L990 1816L1198 1561Z" fill="#3d2691" stroke="#3d2691"></path><path d="M1579 0L1385 0L1423 148Z" fill="#382388" stroke="#382388"></path><path d="M831 749L1036 806L1036 624Z" fill="#3d2691" stroke="#3d2691"></path><path d="M849 1204L790 1435L1024 1413Z" fill="#3d2691" stroke="#3d2691"></path><path d="M805 633L831 749L1036 624Z" fill="#382388" stroke="#382388"></path><path d="M3153 410L3057 158L2986 459Z" fill="#6242d8" stroke="#6242d8"></path><path d="M3254 147L3057 158L3153 410Z" fill="#331f7e" stroke="#331f7e"></path><path d="M659 1385L790 1435L849 1204Z" fill="#6242d8" stroke="#6242d8"></path><path d="M2999 2000L3170 2000L3027 1840Z" fill="#573ac3" stroke="#573ac3"></path><path d="M3392 1775L3431 1648L3259 1585Z" fill="#382388" stroke="#382388"></path><path d="M810 419L805 633L1007 457Z" fill="#6242d8" stroke="#6242d8"></path><path d="M1007 457L805 633L1036 624Z" fill="#472ea5" stroke="#472ea5"></path><path d="M831 749L655 948L790 999Z" fill="#382388" stroke="#382388"></path><path d="M1041 156L1190 426L1204 203Z" fill="#422a9b" stroke="#422a9b"></path><path d="M3057 158L2964 0L2774 207Z" fill="#422a9b" stroke="#422a9b"></path><path d="M3566 776L3418 591L3393 817Z" fill="#472ea5" stroke="#472ea5"></path><path d="M3393 817L3418 591L3256 613Z" fill="#422a9b" stroke="#422a9b"></path><path d="M3057 158L3230 0L2964 0Z" fill="#5136b9" stroke="#5136b9"></path><path d="M3586 1014L3393 817L3398 1025Z" fill="#472ea5" stroke="#472ea5"></path><path d="M797 2000L1023 2000L990 1816Z" fill="#4c32af" stroke="#4c32af"></path><path d="M990 1816L1023 2000L1230 2000Z" fill="#5136b9" stroke="#5136b9"></path><path d="M3392 1775L3259 1585L3169 1775Z" fill="#5136b9" stroke="#5136b9"></path><path d="M3600 1247L3586 1014L3383 1181Z" fill="#331f7e" stroke="#331f7e"></path><path d="M1385 0L1216 0L1423 148Z" fill="#5136b9" stroke="#5136b9"></path><path d="M3170 2000L3392 1775L3169 1775Z" fill="#331f7e" stroke="#331f7e"></path><path d="M1216 0L1041 156L1204 203Z" fill="#5136b9" stroke="#5136b9"></path><path d="M790 1435L775 1650L993 1565Z" fill="#422a9b" stroke="#422a9b"></path><path d="M643 1587L775 1650L790 1435Z" fill="#5136b9" stroke="#5136b9"></path><path d="M775 1650L835 1805L993 1565Z" fill="#382388" stroke="#382388"></path><path d="M3418 591L3383 370L3256 613Z" fill="#382388" stroke="#382388"></path><path d="M625 743L655 948L831 749Z" fill="#6746e3" stroke="#6746e3"></path><path d="M790 999L619 1172L849 1204Z" fill="#382388" stroke="#382388"></path><path d="M3600 1247L3383 1181L3405 1435Z" fill="#3d2691" stroke="#3d2691"></path><path d="M3418 591L3574 443L3383 370Z" fill="#6746e3" stroke="#6746e3"></path><path d="M1041 156L810 419L1007 457Z" fill="#382388" stroke="#382388"></path><path d="M805 633L625 743L831 749Z" fill="#4c32af" stroke="#4c32af"></path><path d="M619 1172L659 1385L849 1204Z" fill="#5136b9" stroke="#5136b9"></path><path d="M775 1650L560 1755L835 1805Z" fill="#422a9b" stroke="#422a9b"></path><path d="M3586 1014L3566 776L3393 817Z" fill="#6242d8" stroke="#6242d8"></path><path d="M3643 1349L3405 1435L3596 1583Z" fill="#382388" stroke="#382388"></path><path d="M3643 1349L3600 1247L3405 1435Z" fill="#6746e3" stroke="#6746e3"></path><path d="M3361 235L3254 147L3153 410Z" fill="#422a9b" stroke="#422a9b"></path><path d="M655 948L619 1172L790 999Z" fill="#472ea5" stroke="#472ea5"></path><path d="M3601 155L3361 235L3383 370Z" fill="#5c3ece" stroke="#5c3ece"></path><path d="M3383 370L3361 235L3153 410Z" fill="#472ea5" stroke="#472ea5"></path><path d="M541 656L625 743L805 633Z" fill="#5136b9" stroke="#5136b9"></path><path d="M389 1142L430 1398L619 1172Z" fill="#5c3ece" stroke="#5c3ece"></path><path d="M3566 776L3574 623L3418 591Z" fill="#422a9b" stroke="#422a9b"></path><path d="M3793 659L3574 623L3566 776Z" fill="#6242d8" stroke="#6242d8"></path><path d="M3760 1034L3566 776L3586 1014Z" fill="#6746e3" stroke="#6746e3"></path><path d="M3596 1583L3405 1435L3431 1648Z" fill="#4c32af" stroke="#4c32af"></path><path d="M3600 1247L3760 1034L3586 1014Z" fill="#6746e3" stroke="#6746e3"></path><path d="M560 1755L643 1587L384 1548Z" fill="#382388" stroke="#382388"></path><path d="M659 1385L643 1587L790 1435Z" fill="#331f7e" stroke="#331f7e"></path><path d="M3582 1768L3596 1583L3431 1648Z" fill="#422a9b" stroke="#422a9b"></path><path d="M3582 1768L3431 1648L3392 1775Z" fill="#3d2691" stroke="#3d2691"></path><path d="M3451 0L3230 0L3254 147Z" fill="#6746e3" stroke="#6746e3"></path><path d="M3254 147L3230 0L3057 158Z" fill="#3d2691" stroke="#3d2691"></path><path d="M1041 156L801 173L810 419Z" fill="#5136b9" stroke="#5136b9"></path><path d="M810 419L541 656L805 633Z" fill="#4c32af" stroke="#4c32af"></path><path d="M1216 0L980 0L1041 156Z" fill="#331f7e" stroke="#331f7e"></path><path d="M646 2000L797 2000L835 1805Z" fill="#5136b9" stroke="#5136b9"></path><path d="M835 1805L797 2000L990 1816Z" fill="#6242d8" stroke="#6242d8"></path><path d="M3170 2000L3444 2000L3392 1775Z" fill="#5c3ece" stroke="#5c3ece"></path><path d="M3574 623L3574 443L3418 591Z" fill="#331f7e" stroke="#331f7e"></path><path d="M3361 235L3451 0L3254 147Z" fill="#422a9b" stroke="#422a9b"></path><path d="M3793 659L3574 443L3574 623Z" fill="#6746e3" stroke="#6746e3"></path><path d="M3444 2000L3582 1768L3392 1775Z" fill="#472ea5" stroke="#472ea5"></path><path d="M3817 1370L3820 1210L3643 1349Z" fill="#5136b9" stroke="#5136b9"></path><path d="M980 0L801 173L1041 156Z" fill="#573ac3" stroke="#573ac3"></path><path d="M563 372L541 656L810 419Z" fill="#4c32af" stroke="#4c32af"></path><path d="M342 1017L389 1142L655 948Z" fill="#6746e3" stroke="#6746e3"></path><path d="M430 1398L643 1587L659 1385Z" fill="#5c3ece" stroke="#5c3ece"></path><path d="M3820 1210L3600 1247L3643 1349Z" fill="#6746e3" stroke="#6746e3"></path><path d="M3820 1210L3760 1034L3600 1247Z" fill="#5c3ece" stroke="#5c3ece"></path><path d="M643 1587L560 1755L775 1650Z" fill="#6242d8" stroke="#6242d8"></path><path d="M430 1398L659 1385L619 1172Z" fill="#331f7e" stroke="#331f7e"></path><path d="M3444 2000L3562 2000L3582 1768Z" fill="#5c3ece" stroke="#5c3ece"></path><path d="M3817 1370L3643 1349L3596 1583Z" fill="#6746e3" stroke="#6746e3"></path><path d="M3817 1370L3596 1583L3834 1589Z" fill="#573ac3" stroke="#573ac3"></path><path d="M3849 847L3793 659L3566 776Z" fill="#422a9b" stroke="#422a9b"></path><path d="M389 1142L619 1172L655 948Z" fill="#573ac3" stroke="#573ac3"></path><path d="M422 1813L646 2000L560 1755Z" fill="#573ac3" stroke="#573ac3"></path><path d="M560 1755L646 2000L835 1805Z" fill="#472ea5" stroke="#472ea5"></path><path d="M3834 1589L3596 1583L3798 1752Z" fill="#331f7e" stroke="#331f7e"></path><path d="M551 150L563 372L801 173Z" fill="#3d2691" stroke="#3d2691"></path><path d="M801 173L563 372L810 419Z" fill="#573ac3" stroke="#573ac3"></path><path d="M404 814L655 948L625 743Z" fill="#422a9b" stroke="#422a9b"></path><path d="M404 814L625 743L541 656Z" fill="#3d2691" stroke="#3d2691"></path><path d="M563 372L451 625L541 656Z" fill="#6746e3" stroke="#6746e3"></path><path d="M3849 847L3566 776L3760 1034Z" fill="#472ea5" stroke="#472ea5"></path><path d="M3601 155L3451 0L3361 235Z" fill="#5c3ece" stroke="#5c3ece"></path><path d="M3601 155L3383 370L3574 443Z" fill="#5136b9" stroke="#5136b9"></path><path d="M980 0L780 0L801 173Z" fill="#5136b9" stroke="#5136b9"></path><path d="M451 625L404 814L541 656Z" fill="#5c3ece" stroke="#5c3ece"></path><path d="M4000 1051L3849 847L3760 1034Z" fill="#472ea5" stroke="#472ea5"></path><path d="M4000 1051L3760 1034L3820 1210Z" fill="#6242d8" stroke="#6242d8"></path><path d="M3792 386L3601 155L3574 443Z" fill="#472ea5" stroke="#472ea5"></path><path d="M244 1206L342 1017L215 945Z" fill="#5136b9" stroke="#5136b9"></path><path d="M404 814L342 1017L655 948Z" fill="#422a9b" stroke="#422a9b"></path><path d="M159 1444L384 1548L430 1398Z" fill="#472ea5" stroke="#472ea5"></path><path d="M3798 1752L3596 1583L3582 1768Z" fill="#6242d8" stroke="#6242d8"></path><path d="M4000 1211L4000 1051L3820 1210Z" fill="#3d2691" stroke="#3d2691"></path><path d="M244 1206L430 1398L389 1142Z" fill="#472ea5" stroke="#472ea5"></path><path d="M430 1398L384 1548L643 1587Z" fill="#6746e3" stroke="#6746e3"></path><path d="M3746 2000L3798 1752L3582 1768Z" fill="#472ea5" stroke="#472ea5"></path><path d="M3793 659L3792 386L3574 443Z" fill="#4c32af" stroke="#4c32af"></path><path d="M4000 580L3792 386L3793 659Z" fill="#3d2691" stroke="#3d2691"></path><path d="M384 1548L422 1813L560 1755Z" fill="#573ac3" stroke="#573ac3"></path><path d="M617 0L551 150L801 173Z" fill="#6242d8" stroke="#6242d8"></path><path d="M563 372L427 344L451 625Z" fill="#331f7e" stroke="#331f7e"></path><path d="M151 839L215 945L404 814Z" fill="#4c32af" stroke="#4c32af"></path><path d="M3749 0L3591 0L3601 155Z" fill="#3d2691" stroke="#3d2691"></path><path d="M3601 155L3591 0L3451 0Z" fill="#382388" stroke="#382388"></path><path d="M551 150L427 344L563 372Z" fill="#5136b9" stroke="#5136b9"></path><path d="M3562 2000L3746 2000L3582 1768Z" fill="#422a9b" stroke="#422a9b"></path><path d="M3820 1210L3817 1370L4000 1359Z" fill="#573ac3" stroke="#573ac3"></path><path d="M780 0L617 0L801 173Z" fill="#6242d8" stroke="#6242d8"></path><path d="M551 150L344 223L427 344Z" fill="#4c32af" stroke="#4c32af"></path><path d="M342 1017L244 1206L389 1142Z" fill="#422a9b" stroke="#422a9b"></path><path d="M384 1548L183 1757L422 1813Z" fill="#331f7e" stroke="#331f7e"></path><path d="M215 945L342 1017L404 814Z" fill="#3d2691" stroke="#3d2691"></path><path d="M4000 1211L3820 1210L4000 1359Z" fill="#5136b9" stroke="#5136b9"></path><path d="M3849 847L4000 836L3793 659Z" fill="#5c3ece" stroke="#5c3ece"></path><path d="M3817 1370L3834 1589L4000 1359Z" fill="#472ea5" stroke="#472ea5"></path><path d="M4000 1359L3834 1589L4000 1608Z" fill="#382388" stroke="#382388"></path><path d="M4000 1608L3834 1589L3798 1752Z" fill="#382388" stroke="#382388"></path><path d="M4000 1051L4000 836L3849 847Z" fill="#422a9b" stroke="#422a9b"></path><path d="M4000 192L3782 182L3792 386Z" fill="#3d2691" stroke="#3d2691"></path><path d="M3792 386L3782 182L3601 155Z" fill="#6746e3" stroke="#6746e3"></path><path d="M151 839L404 814L141 556Z" fill="#5136b9" stroke="#5136b9"></path><path d="M180 2000L418 2000L422 1813Z" fill="#6746e3" stroke="#6746e3"></path><path d="M422 1813L418 2000L646 2000Z" fill="#382388" stroke="#382388"></path><path d="M4000 1849L4000 1608L3798 1752Z" fill="#5136b9" stroke="#5136b9"></path><path d="M4000 836L4000 580L3793 659Z" fill="#6746e3" stroke="#6746e3"></path><path d="M4000 0L3749 0L3782 182Z" fill="#4c32af" stroke="#4c32af"></path><path d="M3782 182L3749 0L3601 155Z" fill="#5136b9" stroke="#5136b9"></path><path d="M389 0L344 223L551 150Z" fill="#5c3ece" stroke="#5c3ece"></path><path d="M141 556L404 814L451 625Z" fill="#382388" stroke="#382388"></path><path d="M215 380L451 625L427 344Z" fill="#6242d8" stroke="#6242d8"></path><path d="M215 945L0 1029L244 1206Z" fill="#3d2691" stroke="#3d2691"></path><path d="M244 1206L159 1444L430 1398Z" fill="#6242d8" stroke="#6242d8"></path><path d="M0 1245L159 1444L244 1206Z" fill="#5c3ece" stroke="#5c3ece"></path><path d="M0 1389L157 1578L159 1444Z" fill="#5c3ece" stroke="#5c3ece"></path><path d="M159 1444L157 1578L384 1548Z" fill="#382388" stroke="#382388"></path><path d="M4000 580L4000 381L3792 386Z" fill="#382388" stroke="#382388"></path><path d="M3746 2000L4000 1849L3798 1752Z" fill="#6242d8" stroke="#6242d8"></path><path d="M344 223L215 380L427 344Z" fill="#6746e3" stroke="#6746e3"></path><path d="M157 1578L183 1757L384 1548Z" fill="#6242d8" stroke="#6242d8"></path><path d="M215 380L141 556L451 625Z" fill="#382388" stroke="#382388"></path><path d="M151 839L0 1029L215 945Z" fill="#422a9b" stroke="#422a9b"></path><path d="M344 223L222 239L215 380Z" fill="#4c32af" stroke="#4c32af"></path><path d="M617 0L389 0L551 150Z" fill="#472ea5" stroke="#472ea5"></path><path d="M3746 2000L4000 2000L4000 1849Z" fill="#5c3ece" stroke="#5c3ece"></path><path d="M194 0L222 239L344 223Z" fill="#573ac3" stroke="#573ac3"></path><path d="M0 422L0 591L141 556Z" fill="#4c32af" stroke="#4c32af"></path><path d="M4000 381L4000 192L3792 386Z" fill="#422a9b" stroke="#422a9b"></path><path d="M0 802L151 839L141 556Z" fill="#472ea5" stroke="#472ea5"></path><path d="M0 802L0 1029L151 839Z" fill="#472ea5" stroke="#472ea5"></path><path d="M157 1578L0 1633L183 1757Z" fill="#5c3ece" stroke="#5c3ece"></path><path d="M0 1029L0 1245L244 1206Z" fill="#573ac3" stroke="#573ac3"></path><path d="M0 2000L180 2000L183 1757Z" fill="#5c3ece" stroke="#5c3ece"></path><path d="M183 1757L180 2000L422 1813Z" fill="#422a9b" stroke="#422a9b"></path><path d="M0 1245L0 1389L159 1444Z" fill="#422a9b" stroke="#422a9b"></path><path d="M0 591L0 802L141 556Z" fill="#331f7e" stroke="#331f7e"></path><path d="M0 422L141 556L215 380Z" fill="#5136b9" stroke="#5136b9"></path><path d="M0 1389L0 1633L157 1578Z" fill="#331f7e" stroke="#331f7e"></path><path d="M4000 192L4000 0L3782 182Z" fill="#382388" stroke="#382388"></path><path d="M0 1633L0 1752L183 1757Z" fill="#6242d8" stroke="#6242d8"></path><path d="M389 0L194 0L344 223Z" fill="#472ea5" stroke="#472ea5"></path><path d="M0 198L0 422L215 380Z" fill="#3d2691" stroke="#3d2691"></path><path d="M0 198L215 380L222 239Z" fill="#4c32af" stroke="#4c32af"></path><path d="M0 1752L0 2000L183 1757Z" fill="#573ac3" stroke="#573ac3"></path><path d="M194 0L0 198L222 239Z" fill="#472ea5" stroke="#472ea5"></path><path d="M194 0L0 0L0 198Z" fill="#382388" stroke="#382388"></path></g></svg>